M48
; DRILL file {KiCad 7.0.8-7.0.8~ubuntu22.04.1} date fre 13 okt 2023 21:40:12
; FORMAT={-:-/ absolute / metric / decimal}
; #@! TF.CreationDate,2023-10-13T21:40:12+02:00
; #@! TF.GenerationSoftware,Kicad,Pcbnew,7.0.8-7.0.8~ubuntu22.04.1
; #@! TF.FileFunction,MixedPlating,1,2
FMAT,2
METRIC
; #@! TA.AperFunction,Plated,PTH,ViaDrill
T1C0.400
; #@! TA.AperFunction,Plated,PTH,ComponentDrill
T2C0.700
; #@! TA.AperFunction,Plated,PTH,ComponentDrill
T3C1.000
%
G90
G05
T1
X202.3Y-102.8
X203.3Y-99.0
X209.45Y-111.2
X211.8Y-100.3
X213.0Y-99.0
X214.1Y-103.1
T2
X207.295Y-97.79
X207.295Y-99.06
X207.295Y-100.33
X207.295Y-101.6
X207.295Y-102.87
X207.295Y-104.14
X207.295Y-105.41
X208.565Y-97.79
X208.565Y-99.06
X208.565Y-100.33
X208.565Y-101.6
X208.565Y-102.87
X208.565Y-104.14
X208.565Y-105.41
T3
X196.4Y-114.6
X198.94Y-114.6
X200.0Y-98.0
X200.0Y-100.54
X200.0Y-103.08
X200.0Y-105.62
X200.0Y-108.16
X201.48Y-114.6
X208.39Y-114.55
X210.93Y-114.55
X213.47Y-114.55
X216.0Y-98.0
X216.0Y-100.54
X216.0Y-103.08
X216.0Y-105.62
X216.0Y-108.16
X216.01Y-114.55
X218.55Y-114.55
T0
M30
