%TF.GenerationSoftware,KiCad,Pcbnew,7.0.10-7.0.10~ubuntu22.04.1*%
%TF.CreationDate,2024-02-24T09:16:54+01:00*%
%TF.ProjectId,st_adap,73745f61-6461-4702-9e6b-696361645f70,rev?*%
%TF.SameCoordinates,Original*%
%TF.FileFunction,Copper,L2,Bot*%
%TF.FilePolarity,Positive*%
%FSLAX46Y46*%
G04 Gerber Fmt 4.6, Leading zero omitted, Abs format (unit mm)*
G04 Created by KiCad (PCBNEW 7.0.10-7.0.10~ubuntu22.04.1) date 2024-02-24 09:16:54*
%MOMM*%
%LPD*%
G01*
G04 APERTURE LIST*
G04 Aperture macros list*
%AMRoundRect*
0 Rectangle with rounded corners*
0 $1 Rounding radius*
0 $2 $3 $4 $5 $6 $7 $8 $9 X,Y pos of 4 corners*
0 Add a 4 corners polygon primitive as box body*
4,1,4,$2,$3,$4,$5,$6,$7,$8,$9,$2,$3,0*
0 Add four circle primitives for the rounded corners*
1,1,$1+$1,$2,$3*
1,1,$1+$1,$4,$5*
1,1,$1+$1,$6,$7*
1,1,$1+$1,$8,$9*
0 Add four rect primitives between the rounded corners*
20,1,$1+$1,$2,$3,$4,$5,0*
20,1,$1+$1,$4,$5,$6,$7,0*
20,1,$1+$1,$6,$7,$8,$9,0*
20,1,$1+$1,$8,$9,$2,$3,0*%
G04 Aperture macros list end*
%TA.AperFunction,ComponentPad*%
%ADD10R,1.700000X1.700000*%
%TD*%
%TA.AperFunction,ComponentPad*%
%ADD11O,1.700000X1.700000*%
%TD*%
%TA.AperFunction,SMDPad,CuDef*%
%ADD12RoundRect,0.250000X-0.450000X0.350000X-0.450000X-0.350000X0.450000X-0.350000X0.450000X0.350000X0*%
%TD*%
%TA.AperFunction,ViaPad*%
%ADD13C,0.800000*%
%TD*%
%TA.AperFunction,Conductor*%
%ADD14C,0.500000*%
%TD*%
G04 APERTURE END LIST*
D10*
%TO.P,J5,1,Pin_1*%
%TO.N,/T_VCP_TX*%
X201480000Y-114600000D03*
D11*
%TO.P,J5,2,Pin_2*%
%TO.N,/T_VCP_RX*%
X198940000Y-114600000D03*
%TO.P,J5,3,Pin_3*%
%TO.N,/GND*%
X196400000Y-114600000D03*
%TD*%
D10*
%TO.P,J4,1,Pin_1*%
%TO.N,/T_JTDO{slash}T_SWO*%
X218550000Y-114550000D03*
D11*
%TO.P,J4,2,Pin_2*%
%TO.N,/T_VCC*%
X216010000Y-114550000D03*
%TO.P,J4,3,Pin_3*%
%TO.N,/T_JTMS{slash}T_SWDIO*%
X213470000Y-114550000D03*
%TO.P,J4,4,Pin_4*%
%TO.N,/T_JCLK{slash}T_SWCLK*%
X210930000Y-114550000D03*
%TO.P,J4,5,Pin_5*%
%TO.N,/GND*%
X208390000Y-114550000D03*
%TD*%
D10*
%TO.P,J3,1,Pin_1*%
%TO.N,/T_VCC*%
X199980000Y-98000000D03*
D11*
%TO.P,J3,2,Pin_2*%
%TO.N,/GND*%
X199980000Y-100540000D03*
%TO.P,J3,3,Pin_3*%
X199980000Y-103080000D03*
%TO.P,J3,4,Pin_4*%
%TO.N,/T_JRCLK*%
X199980000Y-105620000D03*
%TO.P,J3,5,Pin_5*%
%TO.N,/GNDDETECT*%
X199980000Y-108160000D03*
%TD*%
D12*
%TO.P,R1,1*%
%TO.N,/GNDDETECT*%
X194720000Y-109860000D03*
%TO.P,R1,2*%
%TO.N,/GND*%
X194720000Y-111860000D03*
%TD*%
D10*
%TO.P,J2,1,Pin_1*%
%TO.N,/T_NRST*%
X216100000Y-108180000D03*
D11*
%TO.P,J2,2,Pin_2*%
%TO.N,/T_JTDI{slash}NC*%
X216100000Y-105640000D03*
%TO.P,J2,3,Pin_3*%
%TO.N,/T_JTDO{slash}T_SWO*%
X216100000Y-103100000D03*
%TO.P,J2,4,Pin_4*%
%TO.N,/T_JCLK{slash}T_SWCLK*%
X216100000Y-100560000D03*
%TO.P,J2,5,Pin_5*%
%TO.N,/T_JTMS{slash}T_SWDIO*%
X216100000Y-98020000D03*
%TD*%
D13*
%TO.N,/T_VCC*%
X203300000Y-99000000D03*
X209450000Y-111200000D03*
%TO.N,/T_JTMS{slash}T_SWDIO*%
X213000000Y-99000000D03*
%TO.N,/T_JCLK{slash}T_SWCLK*%
X211800000Y-100300000D03*
%TO.N,/T_JTDO{slash}T_SWO*%
X214100000Y-103100000D03*
%TO.N,/GND*%
X202300000Y-102800000D03*
%TD*%
D14*
%TO.N,/T_VCC*%
X203300000Y-108900000D02*
X203300000Y-99000000D01*
X209450000Y-111200000D02*
X205600000Y-111200000D01*
X205600000Y-111200000D02*
X203300000Y-108900000D01*
%TO.N,/T_JTMS{slash}T_SWDIO*%
X213470000Y-112575000D02*
X212995000Y-112100000D01*
X213470000Y-114550000D02*
X213470000Y-112575000D01*
X212995000Y-99005000D02*
X213000000Y-99000000D01*
X212995000Y-112100000D02*
X212995000Y-99005000D01*
%TO.N,/T_JCLK{slash}T_SWCLK*%
X211800000Y-111200000D02*
X211800000Y-110900000D01*
X210930000Y-114550000D02*
X210930000Y-112070000D01*
X211800000Y-110900000D02*
X211800000Y-100300000D01*
X210930000Y-112070000D02*
X211800000Y-111200000D01*
%TO.N,/T_JTDO{slash}T_SWO*%
X217000000Y-111700000D02*
X218550000Y-113250000D01*
X215775000Y-111700000D02*
X217000000Y-111700000D01*
X214100000Y-110025000D02*
X215775000Y-111700000D01*
X214100000Y-110025000D02*
X214100000Y-103100000D01*
X218550000Y-113250000D02*
X218550000Y-114550000D01*
%TO.N,/GNDDETECT*%
X194720000Y-109860000D02*
X194720000Y-108590000D01*
X195150000Y-108160000D02*
X199980000Y-108160000D01*
X194720000Y-108590000D02*
X195150000Y-108160000D01*
%TO.N,/GND*%
X199170000Y-110830000D02*
X197970000Y-110830000D01*
X201580000Y-109880000D02*
X202180000Y-109280000D01*
X202300000Y-109160000D02*
X202300000Y-108600000D01*
X196400000Y-114600000D02*
X195220000Y-114600000D01*
X202300000Y-109400000D02*
X202300000Y-108600000D01*
X202800000Y-109900000D02*
X202180000Y-109280000D01*
X195220000Y-114600000D02*
X194720000Y-114100000D01*
X202180000Y-109280000D02*
X202300000Y-109160000D01*
X199170000Y-110830000D02*
X200630000Y-110830000D01*
X197070000Y-110830000D02*
X197970000Y-110830000D01*
X201580000Y-109880000D02*
X202300000Y-109160000D01*
X207450000Y-114550000D02*
X202800000Y-109900000D01*
X196400000Y-114600000D02*
X196400000Y-111500000D01*
X200630000Y-110830000D02*
X201580000Y-109880000D01*
X202800000Y-109900000D02*
X202300000Y-109400000D01*
X196400000Y-111500000D02*
X197070000Y-110830000D01*
X194720000Y-114100000D02*
X194720000Y-111860000D01*
X202300000Y-109160000D02*
X202300000Y-109400000D01*
X202300000Y-108600000D02*
X202300000Y-102800000D01*
X208390000Y-114550000D02*
X207450000Y-114550000D01*
%TD*%
%TA.AperFunction,Conductor*%
%TO.N,/GND*%
G36*
X196073908Y-113818405D02*
G01*
X196078510Y-113823842D01*
X196397706Y-114593473D01*
X196397710Y-114602428D01*
X196395162Y-114606238D01*
X195805923Y-115194093D01*
X195797646Y-115197510D01*
X195790919Y-115195373D01*
X194937095Y-114593473D01*
X194686886Y-114417089D01*
X194682099Y-114409522D01*
X194684065Y-114400786D01*
X194685349Y-114399260D01*
X195026708Y-114057901D01*
X195032351Y-114054775D01*
X196065078Y-113816922D01*
X196073908Y-113818405D01*
G37*
%TD.AperFunction*%
%TD*%
%TA.AperFunction,Conductor*%
%TO.N,/GNDDETECT*%
G36*
X194971258Y-108663427D02*
G01*
X194973305Y-108666188D01*
X195315707Y-109307293D01*
X195316582Y-109316205D01*
X195313259Y-109321461D01*
X194727872Y-109853840D01*
X194719446Y-109856871D01*
X194712128Y-109853840D01*
X194126740Y-109321461D01*
X194122925Y-109313359D01*
X194124291Y-109307296D01*
X194466695Y-108666187D01*
X194473615Y-108660505D01*
X194477015Y-108660000D01*
X194962985Y-108660000D01*
X194971258Y-108663427D01*
G37*
%TD.AperFunction*%
%TD*%
%TA.AperFunction,Conductor*%
%TO.N,/T_JTMS{slash}T_SWDIO*%
G36*
X213385848Y-98999964D02*
G01*
X213394112Y-99003412D01*
X213397518Y-99011693D01*
X213397304Y-99013892D01*
X213246837Y-99789533D01*
X213241897Y-99797002D01*
X213235351Y-99799005D01*
X212754768Y-99799005D01*
X212746495Y-99795578D01*
X212743256Y-99789394D01*
X212602496Y-99013754D01*
X212604391Y-99005002D01*
X212611919Y-99000153D01*
X212613978Y-98999965D01*
X213000000Y-98999000D01*
X213385848Y-98999964D01*
G37*
%TD.AperFunction*%
%TD*%
%TA.AperFunction,Conductor*%
%TO.N,/T_JCLK{slash}T_SWCLK*%
G36*
X211180273Y-112853427D02*
G01*
X211182903Y-112857455D01*
X211711146Y-114214058D01*
X211710954Y-114223010D01*
X211704732Y-114229108D01*
X210934489Y-114549134D01*
X210925534Y-114549143D01*
X210925511Y-114549134D01*
X210155267Y-114229108D01*
X210148942Y-114222769D01*
X210148853Y-114214058D01*
X210677097Y-112857455D01*
X210683293Y-112850989D01*
X210688000Y-112850000D01*
X211172000Y-112850000D01*
X211180273Y-112853427D01*
G37*
%TD.AperFunction*%
%TD*%
%TA.AperFunction,Conductor*%
%TO.N,/GND*%
G36*
X202685939Y-102799964D02*
G01*
X202694202Y-102803412D01*
X202697608Y-102811693D01*
X202697408Y-102813820D01*
X202551790Y-103590456D01*
X202546897Y-103597956D01*
X202540290Y-103600000D01*
X202059710Y-103600000D01*
X202051437Y-103596573D01*
X202048210Y-103590456D01*
X201902591Y-102813820D01*
X201904435Y-102805057D01*
X201911935Y-102800164D01*
X201914052Y-102799964D01*
X202300000Y-102799000D01*
X202685939Y-102799964D01*
G37*
%TD.AperFunction*%
%TD*%
%TA.AperFunction,Conductor*%
%TO.N,/T_JTDO{slash}T_SWO*%
G36*
X218451756Y-112799104D02*
G01*
X218452177Y-112799548D01*
X218761863Y-113143934D01*
X219255115Y-113692456D01*
X219258099Y-113700899D01*
X219255391Y-113707783D01*
X218558911Y-114540893D01*
X218550976Y-114545043D01*
X218542431Y-114542365D01*
X218541662Y-114541662D01*
X217706950Y-113706950D01*
X217703523Y-113698677D01*
X217705645Y-113691958D01*
X218089803Y-113144756D01*
X218091096Y-113143218D01*
X218435211Y-112799103D01*
X218443483Y-112795677D01*
X218451756Y-112799104D01*
G37*
%TD.AperFunction*%
%TD*%
%TA.AperFunction,Conductor*%
%TO.N,/T_JTDO{slash}T_SWO*%
G36*
X214485939Y-103099964D02*
G01*
X214494202Y-103103412D01*
X214497608Y-103111693D01*
X214497408Y-103113820D01*
X214351790Y-103890456D01*
X214346897Y-103897956D01*
X214340290Y-103900000D01*
X213859710Y-103900000D01*
X213851437Y-103896573D01*
X213848210Y-103890456D01*
X213702591Y-103113820D01*
X213704435Y-103105057D01*
X213711935Y-103100164D01*
X213714052Y-103099964D01*
X214100000Y-103099000D01*
X214485939Y-103099964D01*
G37*
%TD.AperFunction*%
%TD*%
%TA.AperFunction,Conductor*%
%TO.N,/GND*%
G36*
X208385679Y-113703896D02*
G01*
X208389947Y-113711769D01*
X208390010Y-113712974D01*
X208390702Y-114545846D01*
X208387282Y-114554122D01*
X208387265Y-114554139D01*
X207796864Y-115143153D01*
X207788587Y-115146570D01*
X207780712Y-115143510D01*
X206744864Y-114197631D01*
X206741065Y-114189522D01*
X206744113Y-114181102D01*
X206744458Y-114180740D01*
X207086443Y-113838755D01*
X207093499Y-113835392D01*
X208377096Y-113701347D01*
X208385679Y-113703896D01*
G37*
%TD.AperFunction*%
%TD*%
%TA.AperFunction,Conductor*%
%TO.N,/T_JCLK{slash}T_SWCLK*%
G36*
X212185939Y-100299964D02*
G01*
X212194202Y-100303412D01*
X212197608Y-100311693D01*
X212197408Y-100313820D01*
X212051790Y-101090456D01*
X212046897Y-101097956D01*
X212040290Y-101100000D01*
X211559710Y-101100000D01*
X211551437Y-101096573D01*
X211548210Y-101090456D01*
X211402591Y-100313820D01*
X211404435Y-100305057D01*
X211411935Y-100300164D01*
X211414052Y-100299964D01*
X211800000Y-100299000D01*
X212185939Y-100299964D01*
G37*
%TD.AperFunction*%
%TD*%
%TA.AperFunction,Conductor*%
%TO.N,/GNDDETECT*%
G36*
X199653010Y-107379045D02*
G01*
X199659108Y-107385267D01*
X199979134Y-108155511D01*
X199979143Y-108164466D01*
X199979134Y-108164489D01*
X199659108Y-108934732D01*
X199652769Y-108941057D01*
X199644058Y-108941146D01*
X198287455Y-108412902D01*
X198280989Y-108406706D01*
X198280000Y-108401999D01*
X198280000Y-107918000D01*
X198283427Y-107909727D01*
X198287455Y-107907097D01*
X199644058Y-107378853D01*
X199653010Y-107379045D01*
G37*
%TD.AperFunction*%
%TD*%
%TA.AperFunction,Conductor*%
%TO.N,/T_VCC*%
G36*
X203685939Y-98999964D02*
G01*
X203694202Y-99003412D01*
X203697608Y-99011693D01*
X203697408Y-99013820D01*
X203551790Y-99790456D01*
X203546897Y-99797956D01*
X203540290Y-99800000D01*
X203059710Y-99800000D01*
X203051437Y-99796573D01*
X203048210Y-99790456D01*
X202902591Y-99013820D01*
X202904435Y-99005057D01*
X202911935Y-99000164D01*
X202914052Y-98999964D01*
X203300000Y-98999000D01*
X203685939Y-98999964D01*
G37*
%TD.AperFunction*%
%TD*%
%TA.AperFunction,Conductor*%
%TO.N,/GND*%
G36*
X194727872Y-111866159D02*
G01*
X195313259Y-112398537D01*
X195317074Y-112406639D01*
X195315707Y-112412705D01*
X194973305Y-113053812D01*
X194966385Y-113059495D01*
X194962985Y-113060000D01*
X194477015Y-113060000D01*
X194468742Y-113056573D01*
X194466695Y-113053812D01*
X194124292Y-112412705D01*
X194123417Y-112403793D01*
X194126738Y-112398540D01*
X194712128Y-111866158D01*
X194720554Y-111863128D01*
X194727872Y-111866159D01*
G37*
%TD.AperFunction*%
%TD*%
%TA.AperFunction,Conductor*%
%TO.N,/T_VCC*%
G36*
X209444942Y-110804435D02*
G01*
X209449835Y-110811935D01*
X209450035Y-110814062D01*
X209451000Y-111200000D01*
X209451000Y-111200058D01*
X209450035Y-111585937D01*
X209446587Y-111594202D01*
X209438306Y-111597608D01*
X209436179Y-111597408D01*
X208659544Y-111451789D01*
X208652044Y-111446896D01*
X208650000Y-111440289D01*
X208650000Y-110959710D01*
X208653427Y-110951437D01*
X208659542Y-110948210D01*
X209436180Y-110802591D01*
X209444942Y-110804435D01*
G37*
%TD.AperFunction*%
%TD*%
%TA.AperFunction,Conductor*%
%TO.N,/T_JTMS{slash}T_SWDIO*%
G36*
X213720273Y-112853427D02*
G01*
X213722903Y-112857455D01*
X214251146Y-114214058D01*
X214250954Y-114223010D01*
X214244732Y-114229108D01*
X213474489Y-114549134D01*
X213465534Y-114549143D01*
X213465511Y-114549134D01*
X212695267Y-114229108D01*
X212688942Y-114222769D01*
X212688853Y-114214058D01*
X213217097Y-112857455D01*
X213223293Y-112850989D01*
X213228000Y-112850000D01*
X213712000Y-112850000D01*
X213720273Y-112853427D01*
G37*
%TD.AperFunction*%
%TD*%
%TA.AperFunction,Conductor*%
%TO.N,/GND*%
G36*
X196650273Y-112903427D02*
G01*
X196652903Y-112907455D01*
X197181146Y-114264058D01*
X197180954Y-114273010D01*
X197174732Y-114279108D01*
X196404489Y-114599134D01*
X196395534Y-114599143D01*
X196395511Y-114599134D01*
X195625267Y-114279108D01*
X195618942Y-114272769D01*
X195618853Y-114264058D01*
X196147097Y-112907455D01*
X196153293Y-112900989D01*
X196158000Y-112900000D01*
X196642000Y-112900000D01*
X196650273Y-112903427D01*
G37*
%TD.AperFunction*%
%TD*%
M02*
