%TF.GenerationSoftware,KiCad,Pcbnew,7.0.8-7.0.8~ubuntu22.04.1*%
%TF.CreationDate,2023-10-09T22:32:53+02:00*%
%TF.ProjectId,st_adap,73745f61-6461-4702-9e6b-696361645f70,rev?*%
%TF.SameCoordinates,Original*%
%TF.FileFunction,Copper,L1,Top*%
%TF.FilePolarity,Positive*%
%FSLAX46Y46*%
G04 Gerber Fmt 4.6, Leading zero omitted, Abs format (unit mm)*
G04 Created by KiCad (PCBNEW 7.0.8-7.0.8~ubuntu22.04.1) date 2023-10-09 22:32:53*
%MOMM*%
%LPD*%
G01*
G04 APERTURE LIST*
%TA.AperFunction,ComponentPad*%
%ADD10O,1.700000X1.700000*%
%TD*%
%TA.AperFunction,ComponentPad*%
%ADD11R,1.700000X1.700000*%
%TD*%
%TA.AperFunction,SMDPad,CuDef*%
%ADD12R,2.400000X0.740000*%
%TD*%
%TA.AperFunction,ViaPad*%
%ADD13C,0.800000*%
%TD*%
%TA.AperFunction,Conductor*%
%ADD14C,0.500000*%
%TD*%
G04 APERTURE END LIST*
D10*
%TO.P,J4,5,Pin_5*%
%TO.N,/GND*%
X207915000Y-114000000D03*
%TO.P,J4,4,Pin_4*%
%TO.N,/T_JCLK{slash}T_SWCLK*%
X210455000Y-114000000D03*
%TO.P,J4,3,Pin_3*%
%TO.N,/T_JTMS{slash}T_SWDIO*%
X212995000Y-114000000D03*
%TO.P,J4,2,Pin_2*%
%TO.N,/T_VCC*%
X215535000Y-114000000D03*
D11*
%TO.P,J4,1,Pin_1*%
%TO.N,/T_JTDO{slash}T_SWO*%
X218075000Y-114000000D03*
%TD*%
%TO.P,J2,1,Pin_1*%
%TO.N,/T_JTMS{slash}T_SWDIO*%
X216000000Y-98000000D03*
D10*
%TO.P,J2,2,Pin_2*%
%TO.N,/T_JCLK{slash}T_SWCLK*%
X216000000Y-100540000D03*
%TO.P,J2,3,Pin_3*%
%TO.N,/T_JTDO{slash}T_SWO*%
X216000000Y-103080000D03*
%TO.P,J2,4,Pin_4*%
%TO.N,/T_JTDI{slash}NC*%
X216000000Y-105620000D03*
%TO.P,J2,5,Pin_5*%
%TO.N,/T_NRST*%
X216000000Y-108160000D03*
%TD*%
D11*
%TO.P,J5,1,Pin_1*%
%TO.N,/T_VCP_TX*%
X202540000Y-114000000D03*
D10*
%TO.P,J5,2,Pin_2*%
%TO.N,/T_VCP_RX*%
X200000000Y-114000000D03*
%TO.P,J5,3,Pin_3*%
%TO.N,/GND*%
X197460000Y-114000000D03*
%TD*%
D11*
%TO.P,J3,1,Pin_1*%
%TO.N,/GNDDETECT*%
X200000000Y-108160000D03*
D10*
%TO.P,J3,2,Pin_2*%
%TO.N,/T_JRCLK*%
X200000000Y-105620000D03*
%TO.P,J3,3,Pin_3*%
%TO.N,/GND*%
X200000000Y-103080000D03*
%TO.P,J3,4,Pin_4*%
%TO.N,/GND1*%
X200000000Y-100540000D03*
%TO.P,J3,5,Pin_5*%
%TO.N,/T_VCC*%
X200000000Y-98000000D03*
%TD*%
D12*
%TO.P,J1,1,Pin_1*%
%TO.N,unconnected-(J1-Pin_1-Pad1)*%
X206000000Y-101190000D03*
%TO.P,J1,2,Pin_2*%
%TO.N,unconnected-(J1-Pin_2-Pad2)*%
X209900000Y-101190000D03*
%TO.P,J1,3,Pin_3*%
%TO.N,/T_VCC*%
X206000000Y-102460000D03*
%TO.P,J1,4,Pin_4*%
%TO.N,/T_JTMS{slash}T_SWDIO*%
X209900000Y-102460000D03*
%TO.P,J1,5,Pin_5*%
%TO.N,/GND1*%
X206000000Y-103730000D03*
%TO.P,J1,6,Pin_6*%
%TO.N,/T_JCLK{slash}T_SWCLK*%
X209900000Y-103730000D03*
%TO.P,J1,7,Pin_7*%
%TO.N,/GND*%
X206000000Y-105000000D03*
%TO.P,J1,8,Pin_8*%
%TO.N,/T_JTDO{slash}T_SWO*%
X209900000Y-105000000D03*
%TO.P,J1,9,Pin_9*%
%TO.N,/T_JRCLK*%
X206000000Y-106270000D03*
%TO.P,J1,10,Pin_10*%
%TO.N,/T_JTDI{slash}NC*%
X209900000Y-106270000D03*
%TO.P,J1,11,Pin_11*%
%TO.N,/GNDDETECT*%
X206000000Y-107540000D03*
%TO.P,J1,12,Pin_12*%
%TO.N,/T_NRST*%
X209900000Y-107540000D03*
%TO.P,J1,13,Pin_13*%
%TO.N,/T_VCP_RX*%
X206000000Y-108810000D03*
%TO.P,J1,14,Pin_14*%
%TO.N,/T_VCP_TX*%
X209900000Y-108810000D03*
%TD*%
D13*
%TO.N,/T_VCC*%
X209450000Y-111200000D03*
X203300000Y-101300000D03*
%TO.N,/GND*%
X202300000Y-105000000D03*
%TO.N,/T_JTMS{slash}T_SWDIO*%
X213100000Y-100400000D03*
%TO.N,/T_JTDO{slash}T_SWO*%
X214100000Y-105000000D03*
%TO.N,/T_JCLK{slash}T_SWCLK*%
X211800000Y-103700000D03*
%TD*%
D14*
%TO.N,/T_VCC*%
X215535000Y-114000000D02*
X212735000Y-111200000D01*
X212735000Y-111200000D02*
X209450000Y-111200000D01*
X203300000Y-101300000D02*
X200000000Y-98000000D01*
X204460000Y-102460000D02*
X203300000Y-101300000D01*
%TO.N,/GND*%
X202300000Y-105000000D02*
X201920000Y-105000000D01*
%TO.N,/T_VCP_RX*%
X200000000Y-114000000D02*
X200000000Y-112500000D01*
X200000000Y-112500000D02*
X200600000Y-111900000D01*
X200600000Y-111900000D02*
X202100000Y-111900000D01*
X202100000Y-111900000D02*
X205190000Y-108810000D01*
X205190000Y-108810000D02*
X206000000Y-108810000D01*
%TO.N,/T_VCP_TX*%
X209900000Y-108810000D02*
X204710000Y-114000000D01*
X204710000Y-114000000D02*
X202540000Y-114000000D01*
%TO.N,/T_JTMS{slash}T_SWDIO*%
X213160000Y-100400000D02*
X215560000Y-98000000D01*
X213100000Y-100400000D02*
X213160000Y-100400000D01*
X213100000Y-100460000D02*
X213100000Y-100400000D01*
%TO.N,/T_JTDO{slash}T_SWO*%
X214700000Y-104380000D02*
X216000000Y-103080000D01*
X214700000Y-104400000D02*
X214700000Y-104380000D01*
X214680000Y-104400000D02*
X214700000Y-104400000D01*
%TO.N,/T_JCLK{slash}T_SWCLK*%
X211830000Y-103730000D02*
X212810000Y-103730000D01*
X211800000Y-103700000D02*
X211830000Y-103730000D01*
X211770000Y-103730000D02*
X211800000Y-103700000D01*
%TO.N,/GNDDETECT*%
X206000000Y-107540000D02*
X200620000Y-107540000D01*
X200620000Y-107540000D02*
X200000000Y-108160000D01*
%TO.N,/T_JRCLK*%
X206000000Y-106270000D02*
X200650000Y-106270000D01*
X200650000Y-106270000D02*
X200000000Y-105620000D01*
%TO.N,/GND*%
X206000000Y-105000000D02*
X202300000Y-105000000D01*
X201920000Y-105000000D02*
X200000000Y-103080000D01*
%TO.N,/GND1*%
X206000000Y-103730000D02*
X203190000Y-103730000D01*
X203190000Y-103730000D02*
X200000000Y-100540000D01*
%TO.N,/T_VCC*%
X206000000Y-102460000D02*
X204460000Y-102460000D01*
%TO.N,/T_NRST*%
X209900000Y-107540000D02*
X215380000Y-107540000D01*
X215380000Y-107540000D02*
X216000000Y-108160000D01*
%TO.N,/T_JTDI{slash}NC*%
X209900000Y-106270000D02*
X215350000Y-106270000D01*
X215350000Y-106270000D02*
X216000000Y-105620000D01*
%TO.N,/T_JTDO{slash}T_SWO*%
X209900000Y-105000000D02*
X214080000Y-105000000D01*
X214080000Y-105000000D02*
X214680000Y-104400000D01*
%TO.N,/T_JCLK{slash}T_SWCLK*%
X209900000Y-103730000D02*
X211770000Y-103730000D01*
X212810000Y-103730000D02*
X216000000Y-100540000D01*
%TO.N,/T_JTMS{slash}T_SWDIO*%
X209900000Y-102460000D02*
X211100000Y-102460000D01*
X211100000Y-102460000D02*
X213100000Y-100460000D01*
X215560000Y-98000000D02*
X216000000Y-98000000D01*
%TD*%
M02*
