%TF.GenerationSoftware,KiCad,Pcbnew,7.0.8-7.0.8~ubuntu22.04.1*%
%TF.CreationDate,2023-10-12T06:41:05+02:00*%
%TF.ProjectId,st_adap,73745f61-6461-4702-9e6b-696361645f70,rev?*%
%TF.SameCoordinates,Original*%
%TF.FileFunction,Copper,L1,Top*%
%TF.FilePolarity,Positive*%
%FSLAX46Y46*%
G04 Gerber Fmt 4.6, Leading zero omitted, Abs format (unit mm)*
G04 Created by KiCad (PCBNEW 7.0.8-7.0.8~ubuntu22.04.1) date 2023-10-12 06:41:05*
%MOMM*%
%LPD*%
G01*
G04 APERTURE LIST*
%TA.AperFunction,SMDPad,CuDef*%
%ADD10R,2.400000X0.740000*%
%TD*%
%TA.AperFunction,ComponentPad*%
%ADD11R,1.700000X1.700000*%
%TD*%
%TA.AperFunction,ComponentPad*%
%ADD12O,1.700000X1.700000*%
%TD*%
%TA.AperFunction,ViaPad*%
%ADD13C,0.800000*%
%TD*%
%TA.AperFunction,Conductor*%
%ADD14C,0.500000*%
%TD*%
G04 APERTURE END LIST*
D10*
%TO.P,J1,1,Pin_1*%
%TO.N,unconnected-(J1-Pin_1-Pad1)*%
X206000000Y-97790000D03*
%TO.P,J1,2,Pin_2*%
%TO.N,unconnected-(J1-Pin_2-Pad2)*%
X209900000Y-97790000D03*
%TO.P,J1,3,Pin_3*%
%TO.N,/T_VCC*%
X206000000Y-99060000D03*
%TO.P,J1,4,Pin_4*%
%TO.N,/T_JTMS{slash}T_SWDIO*%
X209900000Y-99060000D03*
%TO.P,J1,5,Pin_5*%
%TO.N,/GND1*%
X206000000Y-100330000D03*
%TO.P,J1,6,Pin_6*%
%TO.N,/T_JCLK{slash}T_SWCLK*%
X209900000Y-100330000D03*
%TO.P,J1,7,Pin_7*%
%TO.N,/GND2*%
X206000000Y-101600000D03*
%TO.P,J1,8,Pin_8*%
%TO.N,/T_JTDO{slash}T_SWO*%
X209900000Y-101600000D03*
%TO.P,J1,9,Pin_9*%
%TO.N,/T_JRCLK*%
X206000000Y-102870000D03*
%TO.P,J1,10,Pin_10*%
%TO.N,/T_JTDI{slash}NC*%
X209900000Y-102870000D03*
%TO.P,J1,11,Pin_11*%
%TO.N,/GNDDETECT*%
X206000000Y-104140000D03*
%TO.P,J1,12,Pin_12*%
%TO.N,/T_NRST*%
X209900000Y-104140000D03*
%TO.P,J1,13,Pin_13*%
%TO.N,/T_VCP_RX*%
X206000000Y-105410000D03*
%TO.P,J1,14,Pin_14*%
%TO.N,/T_VCP_TX*%
X209900000Y-105410000D03*
%TD*%
D11*
%TO.P,J5,1,Pin_1*%
%TO.N,/T_VCP_TX*%
X201480000Y-114600000D03*
D12*
%TO.P,J5,2,Pin_2*%
%TO.N,/T_VCP_RX*%
X198940000Y-114600000D03*
%TO.P,J5,3,Pin_3*%
%TO.N,/GND2*%
X196400000Y-114600000D03*
%TD*%
D11*
%TO.P,J2,1,Pin_1*%
%TO.N,/T_JTMS{slash}T_SWDIO*%
X216000000Y-98000000D03*
D12*
%TO.P,J2,2,Pin_2*%
%TO.N,/T_JCLK{slash}T_SWCLK*%
X216000000Y-100540000D03*
%TO.P,J2,3,Pin_3*%
%TO.N,/T_JTDO{slash}T_SWO*%
X216000000Y-103080000D03*
%TO.P,J2,4,Pin_4*%
%TO.N,/T_JTDI{slash}NC*%
X216000000Y-105620000D03*
%TO.P,J2,5,Pin_5*%
%TO.N,/T_NRST*%
X216000000Y-108160000D03*
%TD*%
D11*
%TO.P,J4,1,Pin_1*%
%TO.N,/T_JTDO{slash}T_SWO*%
X218550000Y-114550000D03*
D12*
%TO.P,J4,2,Pin_2*%
%TO.N,/T_VCC*%
X216010000Y-114550000D03*
%TO.P,J4,3,Pin_3*%
%TO.N,/T_JTMS{slash}T_SWDIO*%
X213470000Y-114550000D03*
%TO.P,J4,4,Pin_4*%
%TO.N,/T_JCLK{slash}T_SWCLK*%
X210930000Y-114550000D03*
%TO.P,J4,5,Pin_5*%
%TO.N,/GND2*%
X208390000Y-114550000D03*
%TD*%
D11*
%TO.P,J3,1,Pin_1*%
%TO.N,/GNDDETECT*%
X200000000Y-108160000D03*
D12*
%TO.P,J3,2,Pin_2*%
%TO.N,/T_JRCLK*%
X200000000Y-105620000D03*
%TO.P,J3,3,Pin_3*%
%TO.N,/GND2*%
X200000000Y-103080000D03*
%TO.P,J3,4,Pin_4*%
%TO.N,/GND1*%
X200000000Y-100540000D03*
%TO.P,J3,5,Pin_5*%
%TO.N,/T_VCC*%
X200000000Y-98000000D03*
%TD*%
D13*
%TO.N,/T_VCC*%
X203300000Y-99000000D03*
X209450000Y-111200000D03*
%TO.N,/T_JTMS{slash}T_SWDIO*%
X213000000Y-99000000D03*
%TO.N,/T_JCLK{slash}T_SWCLK*%
X211800000Y-100300000D03*
%TO.N,/T_JTDO{slash}T_SWO*%
X214100000Y-103100000D03*
%TO.N,/GND2*%
X202300000Y-102800000D03*
%TD*%
D14*
%TO.N,/T_VCC*%
X216010000Y-112510000D02*
X214700000Y-111200000D01*
X216010000Y-114550000D02*
X216010000Y-112510000D01*
X200000000Y-98000000D02*
X202100000Y-98000000D01*
X203160000Y-99060000D02*
X206000000Y-99060000D01*
X202100000Y-98000000D02*
X203160000Y-99060000D01*
X214700000Y-111200000D02*
X209450000Y-111200000D01*
%TO.N,/T_JTMS{slash}T_SWDIO*%
X212940000Y-99060000D02*
X209900000Y-99060000D01*
X214000000Y-98000000D02*
X212940000Y-99060000D01*
X216000000Y-98000000D02*
X214000000Y-98000000D01*
%TO.N,/T_JCLK{slash}T_SWCLK*%
X209900000Y-100330000D02*
X215790000Y-100330000D01*
X215790000Y-100330000D02*
X216000000Y-100540000D01*
%TO.N,/T_JTDO{slash}T_SWO*%
X216000000Y-103080000D02*
X213880000Y-103080000D01*
X212400000Y-101600000D02*
X209900000Y-101600000D01*
X213880000Y-103080000D02*
X212400000Y-101600000D01*
%TO.N,/T_JRCLK*%
X204230000Y-102870000D02*
X202600000Y-104500000D01*
X202080000Y-105620000D02*
X200000000Y-105620000D01*
X202600000Y-104500000D02*
X202600000Y-105100000D01*
X202600000Y-105100000D02*
X202080000Y-105620000D01*
X206000000Y-102870000D02*
X204230000Y-102870000D01*
%TO.N,/T_JTDI{slash}NC*%
X216000000Y-105620000D02*
X214780000Y-105620000D01*
X214780000Y-105620000D02*
X212030000Y-102870000D01*
X212030000Y-102870000D02*
X209900000Y-102870000D01*
%TO.N,/GNDDETECT*%
X202900000Y-106600000D02*
X202900000Y-106700000D01*
X204200000Y-104300000D02*
X204200000Y-105300000D01*
X204360000Y-104140000D02*
X204200000Y-104300000D01*
X201440000Y-108160000D02*
X200000000Y-108160000D01*
X206000000Y-104140000D02*
X204360000Y-104140000D01*
X204200000Y-105300000D02*
X202900000Y-106600000D01*
X202900000Y-106700000D02*
X201440000Y-108160000D01*
%TO.N,/T_NRST*%
X216000000Y-108160000D02*
X211980000Y-104140000D01*
X211980000Y-104140000D02*
X209900000Y-104140000D01*
%TO.N,/T_VCP_RX*%
X198940000Y-114600000D02*
X198940000Y-112470000D01*
X198940000Y-112470000D02*
X206000000Y-105410000D01*
%TO.N,/T_VCP_TX*%
X201480000Y-114600000D02*
X204110000Y-114600000D01*
X204110000Y-114600000D02*
X209900000Y-108810000D01*
X209900000Y-108810000D02*
X209900000Y-105410000D01*
%TO.N,/GND1*%
X202960000Y-100540000D02*
X203170000Y-100330000D01*
X203170000Y-100330000D02*
X206000000Y-100330000D01*
X200000000Y-100540000D02*
X202960000Y-100540000D01*
%TO.N,/GND2*%
X200000000Y-103080000D02*
X202020000Y-103080000D01*
X203500000Y-101600000D02*
X206000000Y-101600000D01*
X202020000Y-103080000D02*
X203500000Y-101600000D01*
%TD*%
M02*
