%TF.GenerationSoftware,KiCad,Pcbnew,7.0.8-7.0.8~ubuntu22.04.1*%
%TF.CreationDate,2023-10-12T06:29:19+02:00*%
%TF.ProjectId,st_adap,73745f61-6461-4702-9e6b-696361645f70,rev?*%
%TF.SameCoordinates,Original*%
%TF.FileFunction,Copper,L2,Bot*%
%TF.FilePolarity,Positive*%
%FSLAX46Y46*%
G04 Gerber Fmt 4.6, Leading zero omitted, Abs format (unit mm)*
G04 Created by KiCad (PCBNEW 7.0.8-7.0.8~ubuntu22.04.1) date 2023-10-12 06:29:19*
%MOMM*%
%LPD*%
G01*
G04 APERTURE LIST*
%TA.AperFunction,ComponentPad*%
%ADD10R,1.700000X1.700000*%
%TD*%
%TA.AperFunction,ComponentPad*%
%ADD11O,1.700000X1.700000*%
%TD*%
%TA.AperFunction,ViaPad*%
%ADD12C,0.800000*%
%TD*%
%TA.AperFunction,Conductor*%
%ADD13C,0.500000*%
%TD*%
G04 APERTURE END LIST*
D10*
%TO.P,J5,1,Pin_1*%
%TO.N,/T_VCP_TX*%
X201480000Y-114600000D03*
D11*
%TO.P,J5,2,Pin_2*%
%TO.N,/T_VCP_RX*%
X198940000Y-114600000D03*
%TO.P,J5,3,Pin_3*%
%TO.N,/GND2*%
X196400000Y-114600000D03*
%TD*%
D10*
%TO.P,J2,1,Pin_1*%
%TO.N,/T_JTMS{slash}T_SWDIO*%
X216000000Y-98000000D03*
D11*
%TO.P,J2,2,Pin_2*%
%TO.N,/T_JCLK{slash}T_SWCLK*%
X216000000Y-100540000D03*
%TO.P,J2,3,Pin_3*%
%TO.N,/T_JTDO{slash}T_SWO*%
X216000000Y-103080000D03*
%TO.P,J2,4,Pin_4*%
%TO.N,/T_JTDI{slash}NC*%
X216000000Y-105620000D03*
%TO.P,J2,5,Pin_5*%
%TO.N,/T_NRST*%
X216000000Y-108160000D03*
%TD*%
D10*
%TO.P,J4,1,Pin_1*%
%TO.N,/T_JTDO{slash}T_SWO*%
X218550000Y-114550000D03*
D11*
%TO.P,J4,2,Pin_2*%
%TO.N,/T_VCC*%
X216010000Y-114550000D03*
%TO.P,J4,3,Pin_3*%
%TO.N,/T_JTMS{slash}T_SWDIO*%
X213470000Y-114550000D03*
%TO.P,J4,4,Pin_4*%
%TO.N,/T_JCLK{slash}T_SWCLK*%
X210930000Y-114550000D03*
%TO.P,J4,5,Pin_5*%
%TO.N,/GND2*%
X208390000Y-114550000D03*
%TD*%
D10*
%TO.P,J3,1,Pin_1*%
%TO.N,/GNDDETECT*%
X200000000Y-108160000D03*
D11*
%TO.P,J3,2,Pin_2*%
%TO.N,/T_JRCLK*%
X200000000Y-105620000D03*
%TO.P,J3,3,Pin_3*%
%TO.N,/GND2*%
X200000000Y-103080000D03*
%TO.P,J3,4,Pin_4*%
%TO.N,/GND1*%
X200000000Y-100540000D03*
%TO.P,J3,5,Pin_5*%
%TO.N,/T_VCC*%
X200000000Y-98000000D03*
%TD*%
D12*
%TO.N,/T_VCC*%
X203300000Y-99000000D03*
X209450000Y-111200000D03*
%TO.N,/T_JTMS{slash}T_SWDIO*%
X213000000Y-99000000D03*
%TO.N,/T_JCLK{slash}T_SWCLK*%
X211800000Y-100300000D03*
%TO.N,/T_JTDO{slash}T_SWO*%
X214100000Y-103100000D03*
%TO.N,/GND2*%
X202300000Y-102800000D03*
%TD*%
D13*
%TO.N,/T_VCC*%
X203300000Y-108900000D02*
X203300000Y-99000000D01*
X209450000Y-111200000D02*
X205600000Y-111200000D01*
X205600000Y-111200000D02*
X203300000Y-108900000D01*
%TO.N,/T_JTMS{slash}T_SWDIO*%
X213470000Y-112575000D02*
X212995000Y-112100000D01*
X213470000Y-114550000D02*
X213470000Y-112575000D01*
X212995000Y-99005000D02*
X213000000Y-99000000D01*
X212995000Y-112100000D02*
X212995000Y-99005000D01*
%TO.N,/T_JCLK{slash}T_SWCLK*%
X211800000Y-111200000D02*
X211800000Y-110900000D01*
X210930000Y-114550000D02*
X210930000Y-112070000D01*
X211800000Y-110900000D02*
X211800000Y-100300000D01*
X210930000Y-112070000D02*
X211800000Y-111200000D01*
%TO.N,/T_JTDO{slash}T_SWO*%
X217000000Y-111700000D02*
X218550000Y-113250000D01*
X215775000Y-111700000D02*
X217000000Y-111700000D01*
X214100000Y-110025000D02*
X215775000Y-111700000D01*
X214100000Y-110025000D02*
X214100000Y-103100000D01*
X218550000Y-113250000D02*
X218550000Y-114550000D01*
%TO.N,/GND2*%
X199170000Y-110830000D02*
X197970000Y-110830000D01*
X201580000Y-109880000D02*
X202180000Y-109280000D01*
X202300000Y-109160000D02*
X202300000Y-108600000D01*
X202300000Y-109400000D02*
X202300000Y-108600000D01*
X202800000Y-109900000D02*
X202180000Y-109280000D01*
X202180000Y-109280000D02*
X202300000Y-109160000D01*
X199170000Y-110830000D02*
X200630000Y-110830000D01*
X197070000Y-110830000D02*
X197970000Y-110830000D01*
X201580000Y-109880000D02*
X202300000Y-109160000D01*
X196400000Y-114600000D02*
X196400000Y-111500000D01*
X200630000Y-110830000D02*
X201580000Y-109880000D01*
X207915000Y-114000000D02*
X206900000Y-114000000D01*
X202800000Y-109900000D02*
X202300000Y-109400000D01*
X196400000Y-111500000D02*
X197070000Y-110830000D01*
X206900000Y-114000000D02*
X202800000Y-109900000D01*
X202300000Y-109160000D02*
X202300000Y-109400000D01*
X202300000Y-108600000D02*
X202300000Y-102800000D01*
%TD*%
M02*
